<?xml version="1.0" encoding="UTF-8" standalone="no"?>
<!-- Created with Inkscape (http://www.inkscape.org/) -->

<svg
   width="210mm"
   height="297mm"
   viewBox="0 0 210 297"
   version="1.1"
   id="svg1"
   inkscape:version="1.3.2 (091e20e, 2023-11-25)"
   sodipodi:docname="noah_schematics.svg"
   xmlns:inkscape="http://www.inkscape.org/namespaces/inkscape"
   xmlns:sodipodi="http://sodipodi.sourceforge.net/DTD/sodipodi-0.dtd"
   xmlns="http://www.w3.org/2000/svg"
   xmlns:svg="http://www.w3.org/2000/svg">
  <sodipodi:namedview
     id="namedview1"
     pagecolor="#ffffff"
     bordercolor="#666666"
     borderopacity="1.0"
     inkscape:showpageshadow="2"
     inkscape:pageopacity="0.0"
     inkscape:pagecheckerboard="0"
     inkscape:deskcolor="#d1d1d1"
     inkscape:document-units="mm"
     inkscape:zoom="0.94912569"
     inkscape:cx="376.66244"
     inkscape:cy="322.92878"
     inkscape:window-width="1112"
     inkscape:window-height="673"
     inkscape:window-x="224"
     inkscape:window-y="124"
     inkscape:window-maximized="0"
     inkscape:current-layer="layer1"
     showgrid="true">
    <inkscape:grid
       id="grid1"
       units="px"
       originx="0"
       originy="0"
       spacingx="0.26458333"
       spacingy="0.26458334"
       empcolor="#0099e5"
       empopacity="0.30196078"
       color="#0099e5"
       opacity="0.14901961"
       empspacing="5"
       dotted="false"
       gridanglex="30"
       gridanglez="30"
       visible="true" />
  </sodipodi:namedview>
  <defs
     id="defs1" />
  <g
     inkscape:label="Layer 1"
     inkscape:groupmode="layer"
     id="layer1">
    <path
       inkscape:export-filename="/Users/yongrenjie/dphil/nbsphinx/sehsqc/spor.png"
       style="fill:none;stroke:#000000;stroke-width:0.32;stroke-linecap:butt;stroke-linejoin:miter;stroke-dasharray:none;stroke-opacity:1"
       d="M 44.979165,84.666669 H 162.94699"
       id="path10-22-2-8-2-9-9-7-1"
       inkscape:export-xdpi="500"
       inkscape:export-ydpi="500" />
    <rect
       style="fill:#f0f4ff;fill-opacity:1;stroke:#023eff;stroke-width:0.32;stroke-linecap:round;stroke-linejoin:round;stroke-dasharray:none;stop-color:#000000"
       id="rect906-5-0"
       width="23.839087"
       height="6.3999977"
       x="79.874138"
       y="81.466667"
       ry="1.0239956" />
    <rect
       style="fill:#f0f0f0;fill-opacity:1;stroke:#000000;stroke-width:0.32;stroke-linecap:round;stroke-linejoin:round;stroke-dasharray:none;stop-color:#000000"
       id="rect906-0-6-4"
       width="9.5356331"
       height="6.3999977"
       x="47.580784"
       y="81.466675"
       ry="1.0239956" />
    <text
       xml:space="preserve"
       style="font-size:3.51592px;line-height:1.25;font-family:'Fira Sans';-inkscape-font-specification:'Fira Sans, Normal';word-spacing:0px;stroke-width:0.264583;stroke-linecap:butt;stroke-linejoin:round"
       x="51.01675"
       y="85.516243"
       id="text2498-1-9"
       transform="scale(0.99664202,1.0033693)"><tspan
         sodipodi:role="line"
         id="tspan2496-59-9"
         style="stroke-width:0.264583"
         x="51.01675"
         y="85.516243"><tspan
           style="font-style:italic;stroke-width:0.264583"
           id="tspan2502-1-4">d</tspan><tspan
           style="font-size:2.28535px;baseline-shift:sub;stroke-width:0.264583"
           id="tspan2500-3-5">1</tspan></tspan></text>
    <rect
       style="fill:#f0f0f0;fill-opacity:1;stroke:#000000;stroke-width:0.32;stroke-linecap:round;stroke-linejoin:round;stroke-dasharray:none;stop-color:#000000"
       id="rect906-0-6-4-3"
       width="12.181466"
       height="6.3999977"
       x="59.727661"
       y="81.466675"
       ry="1.0239956" />
    <text
       xml:space="preserve"
       style="font-size:3.51592px;line-height:1.25;font-family:'Fira Sans';-inkscape-font-specification:'Fira Sans, Normal';word-spacing:0px;stroke-width:0.264583;stroke-linecap:butt;stroke-linejoin:round"
       x="61.251465"
       y="85.516243"
       id="text2498-1-9-8"
       transform="scale(0.99664202,1.0033693)"><tspan
         sodipodi:role="line"
         id="tspan2496-59-9-1"
         style="font-style:normal;stroke-width:0.264583"
         x="61.251465"
         y="85.516243">HMBC</tspan></text>
    <text
       xml:space="preserve"
       style="font-size:3.51592px;line-height:1.25;font-family:'Fira Sans';-inkscape-font-specification:'Fira Sans, Normal';word-spacing:0px;fill:#023eff;stroke-width:0.264583;stroke-linecap:butt;stroke-linejoin:round"
       x="82.866638"
       y="85.516243"
       id="text2506-8-0"
       transform="scale(0.99664202,1.0033693)"><tspan
         sodipodi:role="line"
         id="tspan2504-8-6"
         style="fill:#023eff;stroke-width:0.264583"
         x="82.866638"
         y="85.516243">HSQC-COSY</tspan></text>
    <rect
       style="fill:#fff4e9;fill-opacity:1;stroke:#ff7c00;stroke-width:0.32;stroke-linecap:round;stroke-linejoin:round;stroke-dasharray:none;stop-color:#000000"
       id="rect906-1-9-9"
       width="13.45591"
       height="6.3999977"
       x="111.65957"
       y="81.466667"
       ry="1.0239956" />
    <text
       xml:space="preserve"
       style="font-size:3.51592px;line-height:1.25;font-family:'Fira Sans';-inkscape-font-specification:'Fira Sans, Normal';word-spacing:0px;fill:#ff7c00;stroke-width:0.264583;stroke-linecap:butt;stroke-linejoin:round"
       x="114.29657"
       y="85.516243"
       id="text2506-9-4-0"
       transform="scale(0.99664202,1.0033693)"><tspan
         sodipodi:role="line"
         id="tspan2504-2-3-8"
         style="fill:#ff7c00;stroke-width:0.264583"
         x="114.29657"
         y="85.516243">HSQC</tspan></text>
    <path
       inkscape:export-filename="/Users/yongrenjie/Desktop/a.png"
       id="path3919-7-8-6-3-9-8"
       title="cos(x)*exp(-x/15)"
       d="m 104.1893,81.967216 c 0.0587,0.04863 0.11731,0.372712 0.17592,0.870589 0.0586,0.49776 0.11731,1.163965 0.17601,1.823368 0.0586,0.659411 0.1173,1.305889 0.1759,1.785895 0.0586,0.480014 0.11731,0.789169 0.17591,0.869169 0.0587,0.08 0.1173,-0.06948 0.17601,-0.39157 0.0586,-0.322087 0.11722,-0.813605 0.1759,-1.341063 0.0586,-0.52746 0.11731,-1.086047 0.17592,-1.538988 0.0586,-0.452935 0.11729,-0.796177 0.17591,-0.957607 0.0586,-0.161533 0.1173,-0.139944 0.17599,0.04263 0.0586,0.182584 0.11721,0.524287 0.17591,0.928569 0.0586,0.404282 0.11731,0.8673 0.17592,1.272678 0.0586,0.405489 0.1173,0.749599 0.1759,0.955633 0.0587,0.206029 0.11732,0.272331 0.17601,0.195731 0.0586,-0.0765 0.11731,-0.294912 0.17592,-0.589818 0.0586,-0.294912 0.1173,-0.663466 0.1759,-1.010652 0.0587,-0.347069 0.1173,-0.669598 0.17591,-0.8924 0.0586,-0.222904 0.1173,-0.34422 0.176,-0.34422 0.0586,-1.1e-4 0.1173,0.120985 0.17591,0.322963 0.0586,0.201979 0.11732,0.482855 0.1759,0.768228 0.0587,0.285271 0.11731,0.572285 0.17601,0.792128 0.0586,0.219732 0.11722,0.370416 0.1759,0.422255 0.0586,0.05173 0.11732,0.0041 0.17592,-0.121757 0.0586,-0.126143 0.1173,-0.329756 0.17592,-0.554861 0.0586,-0.225098 0.1173,-0.469591 0.176,-0.673213 0.0586,-0.203516 0.1172,-0.364284 0.1759,-0.447678 0.0586,-0.0834 0.11731,-0.08877 0.17592,-0.022 0.0586,0.06677 0.1173,0.204931 0.1759,0.374796 0.0587,0.169865 0.11731,0.36987 0.17601,0.549379 0.0586,0.179403 0.11731,0.336557 0.17591,0.435953 0.0586,0.0994 0.11731,0.140063 0.17592,0.117701 0.0586,-0.02221 0.1173,-0.107286 0.176,-0.228932 0.0586,-0.121648 0.1172,-0.27858 0.1759,-0.430146 0.0586,-0.151568 0.11731,-0.296223 0.17592,-0.399896 0.0586,-0.103782 0.1173,-0.165706 0.1759,-0.174796"
       style="fill:none;stroke:#000000;stroke-width:0.264999;stroke-linecap:butt;stroke-linejoin:round;stroke-miterlimit:4;stroke-dasharray:none;stroke-dashoffset:0;stroke-opacity:1"
       inkscape:export-xdpi="600"
       inkscape:export-ydpi="600" />
    <path
       inkscape:export-filename="/Users/yongrenjie/Desktop/a.png"
       id="path3919-7-8-6-3-7-5-2"
       title="cos(x)*exp(-x/15)"
       d="m 125.6826,81.967216 c 0.0587,0.04863 0.11732,0.372712 0.17592,0.870589 0.0586,0.49776 0.11731,1.163965 0.17601,1.823368 0.0586,0.659411 0.1173,1.305889 0.1759,1.785895 0.0586,0.480014 0.11731,0.789169 0.17591,0.869169 0.0587,0.08 0.1173,-0.06948 0.17601,-0.39157 0.0586,-0.322087 0.11722,-0.813605 0.1759,-1.341063 0.0586,-0.52746 0.11731,-1.086047 0.17592,-1.538988 0.0586,-0.452935 0.11729,-0.796177 0.17591,-0.957607 0.0586,-0.161533 0.1173,-0.139944 0.176,0.04263 0.0586,0.182584 0.1172,0.524287 0.1759,0.928569 0.0586,0.404282 0.11731,0.8673 0.17592,1.272678 0.0586,0.405489 0.1173,0.749599 0.1759,0.955633 0.0587,0.206029 0.11732,0.272331 0.17601,0.195731 0.0586,-0.0765 0.11731,-0.294912 0.17592,-0.589818 0.0586,-0.294912 0.1173,-0.663466 0.1759,-1.010652 0.0587,-0.347069 0.1173,-0.669598 0.17591,-0.8924 0.0586,-0.222904 0.1173,-0.34422 0.176,-0.34422 0.0586,-1.1e-4 0.1173,0.120985 0.17591,0.322963 0.0586,0.201979 0.11732,0.482855 0.1759,0.768228 0.0587,0.285271 0.11731,0.572285 0.17601,0.792128 0.0586,0.219732 0.11721,0.370416 0.1759,0.422255 0.0586,0.05173 0.11732,0.0041 0.17592,-0.121757 0.0586,-0.126143 0.1173,-0.329756 0.17592,-0.554861 0.0586,-0.225098 0.1173,-0.469591 0.176,-0.673213 0.0586,-0.203516 0.1172,-0.364284 0.1759,-0.447678 0.0586,-0.0834 0.11731,-0.08877 0.17592,-0.022 0.0586,0.06677 0.1173,0.204931 0.1759,0.374796 0.0586,0.169865 0.11731,0.36987 0.17601,0.549379 0.0586,0.179403 0.11731,0.336557 0.17591,0.435953 0.0586,0.0994 0.1173,0.140063 0.17592,0.117701 0.0586,-0.02221 0.1173,-0.107286 0.176,-0.228932 0.0586,-0.121648 0.1172,-0.27858 0.1759,-0.430146 0.0586,-0.151568 0.11731,-0.296223 0.17592,-0.399896 0.0586,-0.103782 0.11731,-0.165706 0.1759,-0.174796"
       style="fill:none;stroke:#000000;stroke-width:0.264999;stroke-linecap:butt;stroke-linejoin:round;stroke-miterlimit:4;stroke-dasharray:none;stroke-dashoffset:0;stroke-opacity:1"
       inkscape:export-xdpi="600"
       inkscape:export-ydpi="600" />
    <rect
       style="fill:#eff7f1;fill-opacity:1;stroke:#55a868;stroke-width:0.32;stroke-linecap:round;stroke-linejoin:round;stroke-dasharray:none;stop-color:#000000"
       id="rect906-1-9-9-3"
       width="20.312662"
       height="6.3999977"
       x="133.436"
       y="81.466667"
       ry="1.0239956" />
    <text
       xml:space="preserve"
       style="font-size:3.51592px;line-height:1.25;font-family:'Fira Sans';-inkscape-font-specification:'Fira Sans, Normal';word-spacing:0px;fill:#55a868;stroke-width:0.264583;stroke-linecap:butt;stroke-linejoin:round"
       x="135.83305"
       y="85.433624"
       id="text2506-9-4-0-8"
       transform="scale(0.99664202,1.0033693)"><tspan
         sodipodi:role="line"
         id="tspan2504-2-3-8-4"
         style="fill:#55a868;stroke-width:0.264583"
         x="135.83305"
         y="85.433624">CLIP-COSY</tspan></text>
    <path
       inkscape:export-filename="/Users/yongrenjie/Desktop/a.png"
       id="path3919-7-8-6-3-7-5-2-8"
       title="cos(x)*exp(-x/15)"
       d="m 154.3596,81.967218 c 0.0587,0.04863 0.11731,0.372713 0.17591,0.87059 0.0586,0.497759 0.11731,1.163964 0.17601,1.823367 0.0586,0.659412 0.1173,1.30589 0.17591,1.785896 0.0586,0.480013 0.1173,0.789168 0.1759,0.869169 0.0587,0.08 0.11731,-0.06948 0.17602,-0.39157 0.0586,-0.322088 0.11721,-0.813605 0.1759,-1.341064 0.0586,-0.527459 0.1173,-1.086046 0.17591,-1.538988 0.0586,-0.452935 0.1173,-0.796176 0.17591,-0.957606 0.0587,-0.161534 0.1173,-0.139945 0.176,0.04263 0.0586,0.182584 0.11721,0.524287 0.17591,0.928569 0.0586,0.404281 0.1173,0.867299 0.17592,1.272677 0.0586,0.40549 0.11729,0.7496 0.17589,0.955633 0.0587,0.206029 0.11732,0.272331 0.17602,0.195731 0.0586,-0.0765 0.1173,-0.294912 0.17591,-0.589818 0.0586,-0.294912 0.11731,-0.663466 0.1759,-1.010651 0.0587,-0.34707 0.11731,-0.669598 0.17592,-0.8924 0.0586,-0.222905 0.11729,-0.344221 0.176,-0.344221 0.0586,-1.1e-4 0.1173,0.120986 0.17591,0.322964 0.0586,0.201979 0.11732,0.482855 0.1759,0.768227 0.0586,0.285271 0.1173,0.572285 0.17601,0.792128 0.0586,0.219733 0.11721,0.370416 0.17589,0.422256 0.0586,0.05173 0.11732,0.0041 0.17592,-0.121757 0.0586,-0.126144 0.1173,-0.329757 0.17592,-0.554862 0.0586,-0.225098 0.11731,-0.469591 0.17601,-0.673213 0.0586,-0.203516 0.11719,-0.364283 0.17589,-0.447678 0.0586,-0.0834 0.11731,-0.08877 0.17593,-0.022 0.0586,0.06677 0.11729,0.204931 0.17589,0.374796 0.0586,0.169865 0.11731,0.369871 0.17602,0.549379 0.0586,0.179404 0.11731,0.336557 0.1759,0.435953 0.0586,0.0994 0.11731,0.140063 0.17593,0.117701 0.0586,-0.02221 0.11729,-0.107286 0.176,-0.228933 0.0586,-0.121646 0.1172,-0.278579 0.17589,-0.430145 0.0586,-0.151567 0.11732,-0.296223 0.17592,-0.399895 0.0586,-0.103783 0.11731,-0.165708 0.17591,-0.174798"
       style="fill:none;stroke:#000000;stroke-width:0.264999;stroke-linecap:butt;stroke-linejoin:round;stroke-miterlimit:4;stroke-dasharray:none;stroke-dashoffset:0;stroke-opacity:1"
       inkscape:export-xdpi="600"
       inkscape:export-ydpi="600" />
    <path
       inkscape:export-filename="/Users/yongrenjie/dphil/nbsphinx/sehsqc/spor.png"
       style="fill:none;stroke:#000000;stroke-width:0.32;stroke-linecap:butt;stroke-linejoin:miter;stroke-dasharray:none;stroke-opacity:1"
       d="M 49.124505,54.238068 H 147.4152"
       id="path10-22-2-8-2-9-9-7-1-8"
       inkscape:export-xdpi="500"
       inkscape:export-ydpi="500" />
    <rect
       style="fill:#f0f4ff;fill-opacity:1;stroke:#023eff;stroke-width:0.32;stroke-linecap:round;stroke-linejoin:round;stroke-dasharray:none;stop-color:#000000"
       id="rect906-5-0-3"
       width="23.839087"
       height="6.3999977"
       x="64.342361"
       y="51.038074"
       ry="1.0239956" />
    <rect
       style="fill:#f0f0f0;fill-opacity:1;stroke:#000000;stroke-width:0.32;stroke-linecap:round;stroke-linejoin:round;stroke-dasharray:none;stop-color:#000000"
       id="rect906-0-6-4-9"
       width="9.5356331"
       height="6.3999977"
       x="51.62817"
       y="51.038078"
       ry="1.0239956" />
    <text
       xml:space="preserve"
       style="font-size:3.51592px;line-height:1.25;font-family:'Fira Sans';-inkscape-font-specification:'Fira Sans, Normal';word-spacing:0px;stroke-width:0.264583;stroke-linecap:butt;stroke-linejoin:round"
       x="55.077763"
       y="55.189819"
       id="text2498-1-9-0"
       transform="scale(0.99664202,1.0033693)"><tspan
         sodipodi:role="line"
         id="tspan2496-59-9-5"
         style="stroke-width:0.264583"
         x="55.077763"
         y="55.189819"><tspan
           style="font-style:italic;stroke-width:0.264583"
           id="tspan2502-1-4-2">d</tspan><tspan
           style="font-size:2.28535px;baseline-shift:sub;stroke-width:0.264583"
           id="tspan2500-3-5-2">1</tspan></tspan></text>
    <text
       xml:space="preserve"
       style="font-size:3.51592px;line-height:1.25;font-family:'Fira Sans';-inkscape-font-specification:'Fira Sans, Normal';word-spacing:0px;fill:#023eff;stroke-width:0.264583;stroke-linecap:butt;stroke-linejoin:round"
       x="67.282532"
       y="55.189819"
       id="text2506-8-0-7"
       transform="scale(0.99664202,1.0033693)"><tspan
         sodipodi:role="line"
         id="tspan2504-8-6-3"
         style="fill:#023eff;stroke-width:0.264583"
         x="67.282532"
         y="55.189819">HSQC-COSY</tspan></text>
    <rect
       style="fill:#fff4e9;fill-opacity:1;stroke:#ff7c00;stroke-width:0.32;stroke-linecap:round;stroke-linejoin:round;stroke-dasharray:none;stop-color:#000000"
       id="rect906-1-9-9-7"
       width="13.45591"
       height="6.3999977"
       x="96.127785"
       y="51.038074"
       ry="1.0239956" />
    <text
       xml:space="preserve"
       style="font-size:3.51592px;line-height:1.25;font-family:'Fira Sans';-inkscape-font-specification:'Fira Sans, Normal';word-spacing:0px;fill:#ff7c00;stroke-width:0.264583;stroke-linecap:butt;stroke-linejoin:round"
       x="98.712456"
       y="55.189819"
       id="text2506-9-4-0-9"
       transform="scale(0.99664202,1.0033693)"><tspan
         sodipodi:role="line"
         id="tspan2504-2-3-8-0"
         style="fill:#ff7c00;stroke-width:0.264583"
         x="98.712456"
         y="55.189819">HSQC</tspan></text>
    <path
       inkscape:export-filename="/Users/yongrenjie/Desktop/a.png"
       id="path3919-7-8-6-3-9-8-2"
       title="cos(x)*exp(-x/15)"
       d="m 88.657525,51.538615 c 0.0587,0.04863 0.117309,0.372712 0.17592,0.870589 0.0586,0.497761 0.117309,1.163965 0.176007,1.823369 0.0586,0.65941 0.117303,1.305888 0.175903,1.785894 0.0586,0.480014 0.117309,0.789169 0.175909,0.86917 0.0587,0.08 0.117302,-0.06948 0.176011,-0.391571 0.0586,-0.322086 0.117218,-0.813605 0.175899,-1.341063 0.0586,-0.527459 0.117309,-1.086047 0.175919,-1.538988 0.0586,-0.452934 0.117292,-0.796177 0.175909,-0.957607 0.0586,-0.161532 0.117302,-0.139943 0.175991,0.04263 0.0586,0.182584 0.11721,0.524287 0.175912,0.92857 0.0586,0.404281 0.117309,0.867299 0.17592,1.272677 0.0586,0.40549 0.117299,0.749599 0.175898,0.955633 0.0587,0.206029 0.11732,0.272332 0.176012,0.195731 0.0586,-0.0765 0.117309,-0.294912 0.17592,-0.589817 0.0586,-0.294912 0.117298,-0.663466 0.175898,-1.010652 0.0587,-0.347069 0.117302,-0.669599 0.175913,-0.8924 0.0586,-0.222904 0.117298,-0.344221 0.175997,-0.344221 0.0586,-1.1e-4 0.117302,0.120986 0.175913,0.322964 0.0586,0.201979 0.117319,0.482854 0.175898,0.768228 0.0587,0.28527 0.117309,0.572284 0.176012,0.792127 0.0586,0.219732 0.117217,0.370416 0.175898,0.422255 0.0586,0.05173 0.11732,0.0041 0.17592,-0.121757 0.0586,-0.126142 0.117298,-0.329756 0.175919,-0.554861 0.0586,-0.225098 0.117303,-0.469591 0.176001,-0.673212 0.0586,-0.203517 0.1172,-0.364284 0.175899,-0.447679 0.0586,-0.0834 0.117313,-0.08877 0.17592,-0.022 0.0586,0.06677 0.117302,0.204931 0.175902,0.374796 0.0587,0.169865 0.117309,0.369871 0.176007,0.549379 0.0586,0.179404 0.117313,0.336557 0.175913,0.435953 0.0586,0.0994 0.117309,0.140063 0.17592,0.117702 0.0586,-0.02221 0.117298,-0.107287 0.176001,-0.228933 0.0586,-0.121647 0.117199,-0.27858 0.175898,-0.430146 0.0586,-0.151567 0.117309,-0.296223 0.17592,-0.399895 0.0586,-0.103783 0.117298,-0.165707 0.175898,-0.174797"
       style="fill:none;stroke:#000000;stroke-width:0.264999;stroke-linecap:butt;stroke-linejoin:round;stroke-miterlimit:4;stroke-dasharray:none;stroke-dashoffset:0;stroke-opacity:1"
       inkscape:export-xdpi="600"
       inkscape:export-ydpi="600" />
    <path
       inkscape:export-filename="/Users/yongrenjie/Desktop/a.png"
       id="path3919-7-8-6-3-7-5-2-3"
       title="cos(x)*exp(-x/15)"
       d="m 110.15082,51.538615 c 0.0587,0.04863 0.11732,0.372712 0.17592,0.870589 0.0586,0.497761 0.11731,1.163965 0.17601,1.823369 0.0586,0.65941 0.1173,1.305888 0.1759,1.785894 0.0586,0.480014 0.11731,0.789169 0.17591,0.86917 0.0587,0.08 0.1173,-0.06948 0.17601,-0.391571 0.0586,-0.322086 0.11722,-0.813605 0.1759,-1.341063 0.0586,-0.527459 0.11731,-1.086047 0.17592,-1.538988 0.0586,-0.452934 0.11729,-0.796177 0.17591,-0.957607 0.0586,-0.161532 0.1173,-0.139943 0.176,0.04263 0.0586,0.182584 0.1172,0.524287 0.1759,0.92857 0.0586,0.404281 0.11731,0.867299 0.17592,1.272677 0.0586,0.40549 0.1173,0.749599 0.1759,0.955633 0.0587,0.206029 0.11732,0.272332 0.17601,0.195731 0.0586,-0.0765 0.11731,-0.294912 0.17592,-0.589817 0.0586,-0.294912 0.1173,-0.663466 0.1759,-1.010652 0.0587,-0.347069 0.1173,-0.669599 0.17591,-0.8924 0.0586,-0.222904 0.1173,-0.344221 0.176,-0.344221 0.0586,-1.1e-4 0.1173,0.120986 0.17591,0.322964 0.0586,0.201979 0.11732,0.482854 0.1759,0.768228 0.0587,0.28527 0.11731,0.572284 0.17601,0.792127 0.0586,0.219732 0.11721,0.370416 0.1759,0.422255 0.0586,0.05173 0.11732,0.0041 0.17592,-0.121757 0.0586,-0.126142 0.1173,-0.329756 0.17592,-0.554861 0.0586,-0.225098 0.1173,-0.469591 0.176,-0.673212 0.0586,-0.203517 0.1172,-0.364284 0.1759,-0.447679 0.0586,-0.0834 0.11731,-0.08877 0.17592,-0.022 0.0586,0.06677 0.1173,0.204931 0.1759,0.374796 0.0586,0.169865 0.11731,0.369871 0.17601,0.549379 0.0586,0.179404 0.11731,0.336557 0.17591,0.435953 0.0586,0.0994 0.1173,0.140063 0.17592,0.117702 0.0586,-0.02221 0.1173,-0.107287 0.176,-0.228933 0.0586,-0.121647 0.1172,-0.27858 0.1759,-0.430146 0.0586,-0.151567 0.11731,-0.296223 0.17592,-0.399895 0.0586,-0.103783 0.11731,-0.165707 0.1759,-0.174797"
       style="fill:none;stroke:#000000;stroke-width:0.264999;stroke-linecap:butt;stroke-linejoin:round;stroke-miterlimit:4;stroke-dasharray:none;stroke-dashoffset:0;stroke-opacity:1"
       inkscape:export-xdpi="600"
       inkscape:export-ydpi="600" />
    <rect
       style="fill:#eff7f1;fill-opacity:1;stroke:#55a868;stroke-width:0.32;stroke-linecap:round;stroke-linejoin:round;stroke-dasharray:none;stop-color:#000000"
       id="rect906-1-9-9-3-9"
       width="20.312662"
       height="6.3999977"
       x="117.90421"
       y="51.038074"
       ry="1.0239956" />
    <text
       xml:space="preserve"
       style="font-size:3.51592px;line-height:1.25;font-family:'Fira Sans';-inkscape-font-specification:'Fira Sans, Normal';word-spacing:0px;fill:#55a868;stroke-width:0.264583;stroke-linecap:butt;stroke-linejoin:round"
       x="120.24894"
       y="55.107201"
       id="text2506-9-4-0-8-9"
       transform="scale(0.99664202,1.0033693)"><tspan
         sodipodi:role="line"
         id="tspan2504-2-3-8-4-7"
         style="fill:#55a868;stroke-width:0.264583"
         x="120.24894"
         y="55.107201">CLIP-COSY</tspan></text>
    <path
       inkscape:export-filename="/Users/yongrenjie/Desktop/a.png"
       id="path3919-7-8-6-3-7-5-2-8-0"
       title="cos(x)*exp(-x/15)"
       d="m 138.82782,51.538618 c 0.0587,0.04863 0.11731,0.372712 0.17592,0.870589 0.0586,0.497759 0.11731,1.163965 0.176,1.823368 0.0586,0.659411 0.11731,1.305889 0.17591,1.785895 0.0586,0.480014 0.11731,0.789169 0.17591,0.869169 0.0587,0.08 0.1173,-0.06948 0.17601,-0.39157 0.0586,-0.322087 0.11721,-0.813605 0.17591,-1.341063 0.0586,-0.52746 0.11729,-1.086047 0.1759,-1.538988 0.0586,-0.452935 0.1173,-0.796177 0.17591,-0.957607 0.0587,-0.161534 0.11731,-0.139945 0.176,0.04263 0.0586,0.182584 0.11722,0.524287 0.17591,0.928569 0.0586,0.404282 0.11731,0.8673 0.17592,1.272678 0.0586,0.405489 0.1173,0.749599 0.1759,0.955633 0.0587,0.206029 0.11731,0.27233 0.17601,0.195731 0.0586,-0.0765 0.11731,-0.294912 0.17592,-0.589818 0.0586,-0.294912 0.11731,-0.663467 0.17589,-1.010652 0.0587,-0.347069 0.11731,-0.669598 0.17592,-0.8924 0.0586,-0.222904 0.1173,-0.34422 0.17601,-0.34422 0.0586,-1.1e-4 0.11729,0.120985 0.1759,0.322963 0.0586,0.201979 0.11732,0.482855 0.1759,0.768228 0.0586,0.285271 0.1173,0.572285 0.17601,0.792128 0.0586,0.219732 0.11721,0.370416 0.1759,0.422255 0.0586,0.05173 0.11732,0.0041 0.17592,-0.121757 0.0586,-0.126144 0.11729,-0.329756 0.17592,-0.554861 0.0586,-0.225098 0.1173,-0.469591 0.176,-0.673214 0.0586,-0.203515 0.1172,-0.364283 0.17589,-0.447677 0.0586,-0.0834 0.11731,-0.08877 0.17593,-0.022 0.0586,0.06677 0.11729,0.204931 0.1759,0.374796 0.0586,0.169865 0.11731,0.369871 0.17601,0.549379 0.0586,0.179404 0.11731,0.336557 0.1759,0.435953 0.0586,0.0994 0.11732,0.140063 0.17593,0.117702 0.0586,-0.02221 0.11729,-0.107287 0.176,-0.228933 0.0586,-0.121647 0.1172,-0.27858 0.1759,-0.430146 0.0586,-0.151567 0.11732,-0.296223 0.17592,-0.399895 0.0586,-0.103783 0.1173,-0.165707 0.1759,-0.174797"
       style="fill:none;stroke:#000000;stroke-width:0.264999;stroke-linecap:butt;stroke-linejoin:round;stroke-miterlimit:4;stroke-dasharray:none;stroke-dashoffset:0;stroke-opacity:1"
       inkscape:export-xdpi="600"
       inkscape:export-ydpi="600" />
    <path
       inkscape:export-filename="/Users/yongrenjie/Desktop/a.png"
       id="path1"
       title="cos(x)*exp(-x/15)"
       d="m 72.439259,81.967216 c 0.0587,0.04863 0.117307,0.372712 0.175917,0.870589 0.0586,0.49776 0.11731,1.163965 0.17601,1.823368 0.0586,0.659411 0.1173,1.305889 0.1759,1.785895 0.0586,0.480014 0.117307,0.789169 0.175907,0.869169 0.0587,0.08 0.1173,-0.06948 0.17601,-0.39157 0.0586,-0.322087 0.11722,-0.813605 0.1759,-1.341063 0.0586,-0.52746 0.117307,-1.086047 0.175917,-1.538988 0.0586,-0.452935 0.11729,-0.796177 0.17591,-0.957607 0.0586,-0.161533 0.1173,-0.139944 0.17599,0.04263 0.0586,0.182584 0.117207,0.524287 0.175907,0.928569 0.0586,0.404282 0.11731,0.8673 0.17592,1.272678 0.0586,0.405489 0.1173,0.749599 0.1759,0.955633 0.0587,0.206029 0.117317,0.272331 0.176007,0.195731 0.0586,-0.0765 0.11731,-0.294912 0.17592,-0.589818 0.0586,-0.294912 0.1173,-0.663466 0.1759,-1.010652 0.0587,-0.347069 0.117297,-0.669598 0.175907,-0.8924 0.0586,-0.222904 0.1173,-0.34422 0.176,-0.34422 0.0586,-1.1e-4 0.1173,0.120985 0.17591,0.322963 0.0586,0.201979 0.117317,0.482855 0.175897,0.768228 0.0587,0.285271 0.11731,0.572285 0.17601,0.792128 0.0586,0.219732 0.11722,0.370416 0.1759,0.422255 0.0586,0.05173 0.117317,0.0041 0.175917,-0.121757 0.0586,-0.126143 0.1173,-0.329756 0.17592,-0.554861 0.0586,-0.225098 0.1173,-0.469591 0.176,-0.673213 0.0586,-0.203516 0.117197,-0.364284 0.175897,-0.447678 0.0586,-0.0834 0.11731,-0.08877 0.17592,-0.022 0.0586,0.06677 0.1173,0.204931 0.1759,0.374796 0.0587,0.169865 0.117307,0.36987 0.176007,0.549379 0.0586,0.179403 0.11731,0.336557 0.17591,0.435953 0.0586,0.0994 0.11731,0.140063 0.17592,0.117701 0.0586,-0.02221 0.117297,-0.107286 0.175997,-0.228932 0.0586,-0.121648 0.1172,-0.27858 0.1759,-0.430146 0.0586,-0.151568 0.11731,-0.296223 0.17592,-0.399896 0.0586,-0.103782 0.117297,-0.165706 0.175897,-0.174796"
       style="fill:none;stroke:#000000;stroke-width:0.264999;stroke-linecap:butt;stroke-linejoin:round;stroke-miterlimit:4;stroke-dasharray:none;stroke-dashoffset:0;stroke-opacity:1"
       inkscape:export-xdpi="600"
       inkscape:export-ydpi="600" />
  </g>
</svg>
